<?xml version="1.0" encoding="utf-8"?>
<!-- Generator: Adobe Illustrator 24.0.1, SVG Export Plug-In . SVG Version: 6.00 Build 0)  -->
<svg version="1.1" id="Calque_1" xmlns="http://www.w3.org/2000/svg" xmlns:xlink="http://www.w3.org/1999/xlink" x="0px" y="0px"
	 viewBox="0 0 480.2 192" style="enable-background:new 0 0 480.2 192;" xml:space="preserve">
<style type="text/css">
	.st0{fill-rule:evenodd;clip-rule:evenodd;fill:#FAB721;}
</style>
<title>Artboard</title>
<desc>Created with Sketch.</desc>
<g id="Artboard">
	<g id="Group-11" transform="translate(-214.000000, 9.000000)">
		<path id="Combined-Shape" class="st0" d="M359.5,135.7c-1-1.2-2.4-1.9-4-2c-3.2-0.3-6.1,2.1-6.4,5.2c-0.3,3.2,2.1,5.9,5.4,6.2
			c0.2,0,0.3,0,0.5,0c1.4,0,2.7-0.5,3.8-1.4c1.2-1,1.9-2.4,2.1-3.9C361,138.4,360.5,136.9,359.5,135.7z M356.9,141.6
			c-0.6,0.5-1.4,0.7-2.1,0.7c-0.8-0.1-1.5-0.4-2-1c-0.5-0.6-0.8-1.3-0.7-2.1c0.1-1.6,1.6-2.8,3.2-2.6c1.6,0.1,2.8,1.5,2.7,3.1
			C357.9,140.4,357.5,141.1,356.9,141.6z M359.5,135.7c-1-1.2-2.4-1.9-4-2c-3.2-0.3-6.1,2.1-6.4,5.2c-0.3,3.2,2.1,5.9,5.4,6.2
			c0.2,0,0.3,0,0.5,0c1.4,0,2.7-0.5,3.8-1.4c1.2-1,1.9-2.4,2.1-3.9C361,138.4,360.5,136.9,359.5,135.7z M356.9,141.6
			c-0.6,0.5-1.4,0.7-2.1,0.7c-0.8-0.1-1.5-0.4-2-1c-0.5-0.6-0.8-1.3-0.7-2.1c0.1-1.6,1.6-2.8,3.2-2.6c1.6,0.1,2.8,1.5,2.7,3.1
			C357.9,140.4,357.5,141.1,356.9,141.6z M359.5,135.7c-1-1.2-2.4-1.9-4-2c-3.2-0.3-6.1,2.1-6.4,5.2c-0.3,3.2,2.1,5.9,5.4,6.2
			c0.2,0,0.3,0,0.5,0c1.4,0,2.7-0.5,3.8-1.4c1.2-1,1.9-2.4,2.1-3.9C361,138.4,360.5,136.9,359.5,135.7z M356.9,141.6
			c-0.6,0.5-1.4,0.7-2.1,0.7c-0.8-0.1-1.5-0.4-2-1c-0.5-0.6-0.8-1.3-0.7-2.1c0.1-1.6,1.6-2.8,3.2-2.6c1.6,0.1,2.8,1.5,2.7,3.1
			C357.9,140.4,357.5,141.1,356.9,141.6z"/>
		<path class="st0" d="M684.7,138.9c-4.7,0.4-9.6,0.8-14.5,1c-6.5,0.4-13,0.6-19.4,0.9c-5.8,0.2-11.8,0.5-17.8,0.8
			c-7.3,0.4-14.7,0.9-21.9,1.3c-5.1,0.3-10.1,0.7-15.2,1c-4.3,0.3-8.6,0.5-12.9,0.7c-7.8,0.4-22.5,0.2-30.5,0.8
			c-0.5,0-81.2,1.2-123.3,1.9c0.1-0.6,0.2-1.3,0.3-2.1c0.3-3.6-0.3-5-0.5-5.4c-0.2-0.4-0.6-0.7-1.1-0.8c-2.2-0.3-54.4-7.9-63.3-8.7
			l-53.1-4.4c-0.5,0-0.9,0.2-1.2,0.5c-0.3,0.4-1.9,2.4-2.5,9.1c0,0.3,0,0.5,0,0.8c-6.5,2-9.3-8.6-10.5-12.7
			c-1.5-5.6-2.1-11.3-2.3-17.1c-0.4-10.5,0.3-21-0.3-31.5c5,8.6,18.1,8.3,25.5,2.6c6.6-5.2,7.2-14.8,1.3-19.8
			c4.1-0.4,8.3-2,10.9-5.1c3.3-3.8,2.3-8.8-1.6-11.7c-1.8-1.3-3.9-2.1-6.1-2.5c-0.6-0.8-1.2-1.6-1.9-2.3c-7.6-7.5-21.4-7.6-30.8-3.2
			c-0.6-5.3-5.8-9.4-11-10.6c-7.7-2.9-15.8-1.8-22.6,0.4c-5.5,1.8-8.5,6.3-9.4,11.8c-0.4,2.7-0.3,5.4,0.1,8.1
			c-1.2,5.5-0.8,11.5,2.8,16.1c2.8,3.6,7.3,5.4,11.7,4.7c-3,5.8-1.4,13.3,5,16.2c8.4,3.9,17-0.9,24-5.7c0.9,12.9-0.4,25.9,0.8,38.8
			c0.6,6.3,1.8,12.7,4.4,18.5c1.7,3.8,5.2,8.3,9.9,7.2c-0.1,4.3,0.8,5.8,1.1,6.2c0.2,0.3,0.6,0.5,1,0.5c0.2,0,17.2,1.5,33.2,2.9
			c-2.5,0-5.1,0.1-7.5,0.1c-6.8,0.1-13.8,0.2-20.6,0.5c-8.5,0.3-17.1,0.6-25.5,1c-5.9,0.2-11.8,0.5-17.7,0.7c-5,0.2-10,0.3-15,0.5
			c-2.5,0.1-19.3,0.6-42.8,1.4v1.8l55-1.9c7.4-0.1,15-0.2,22.5-0.4c8.8-0.2,17.6-0.5,26.4-0.8c9.1-0.3,18.3-0.6,27.4-0.8
			c3.3-0.1,6.6-0.1,9.8-0.1c3.1,0,6.4,0,9.6,0c18.3,1.2,61.9,1.4,62.3,1.4c0.5,0,1-0.3,1.2-0.7c0.1-0.1,0.3-0.5,0.5-1.3
			c46.9-0.6,132-1.6,138.3-1.8l24.7-0.8c6.3-0.2,14.7-1.7,21.1-2c7.6-0.4,15.2-0.8,22.7-1.2c7.9-0.4,15.7-0.9,23.6-1.3
			c2.8-0.1,5.7-0.2,8.4-0.2c2.7-0.1,5.5-0.1,8.2-0.2c5.6-0.3,11.2-0.6,16.8-0.9c0.5,0,1-0.1,1.5-0.1v-2.6
			C691,138.4,687.8,138.7,684.7,138.9z M332.4,47.4c0.3,4.7-4.9,7.4-9.7,8.2c2-1.4,3.5-3.5,4.2-6c0.8-2.9,0.4-5.9-0.9-8.6
			C329.4,41.8,332.2,43.6,332.4,47.4z M291.9,35.2c7.8-4,19-4.5,26.6,0.2c1.2,0.8,2.3,1.7,3.3,2.8c-3.2-0.2-6.4-0.1-9.3-0.1
			c-3.8-0.1-7.7-0.1-11.5-0.2c-2,0-7.8,0.1-9.2-2.2C291.8,35.5,291.9,35.3,291.9,35.2z M254.4,27.4c2.5-2.5,6.2-3.2,9.5-3.9
			c0,0,0.1,0,0.1,0c-1.1,0.4-2.2,0.8-3.2,1.2c-5.2,2.4-8.2,7.2-10.1,12.4C250.9,33.4,251.8,29.9,254.4,27.4z M250.7,50.9
			c-0.1-0.9-0.2-1.8-0.2-2.8c0.6,1.8,1.4,3.5,2.2,5.2c1.6,3,4,6.3,7,8.2C255,60.4,251.5,55.7,250.7,50.9z M292.7,65.5
			c-0.3,1.7-0.2,3.5,0.2,5.1c-0.5,0.3-1.1,0.5-1.6,0.6c-6.8-3.6-0.3-12.9,0.6-18.4c0.9-5.1-1-10.8-5.2-14.1c-0.7-0.5-1.5-1-2.5-1.4
			c-0.3-1.6-0.9-3.1-2.2-4.4c-7.4-7.9-21.5-2.7-26.4,5.3c-2.4,3.9-3.1,8.8-0.9,13c1.8,3.6,7.1,6.9,10.9,3.6
			c4.9-4.5-3.5-12.6,3.4-15.7c3.9-1.8,9.1-2,13.3-0.3c0.1,1.1,0.1,2.4,0.1,3.6c-0.1,3.3-0.4,6.7-0.8,10c-0.7,5.6-2,11.9,1.4,17
			c1.6,2.4,4.3,3.9,7,4.1c-5.5,3.7-11.7,7-18.4,5.2c-7.5-1.9-9.3-10.1-5.1-15.9c0,0,0,0,0.1-0.1c0,0,0,0,0.1,0
			c1.2-0.5,0.2-2.3-1-1.7c0,0-0.1,0-0.1,0c-7.7,1.2-12.3-10-13.8-15.6c-0.2-0.9-0.4-1.9-0.6-2.9c0.9-4.2,2.8-8.3,5.2-11.4
			c4.2-5.5,11.8-6.9,18.4-7c2.1,0,4.5,0.3,6.8,1c4,1.9,7.4,5.1,8.1,9.4c0,0.1-0.1,0.2-0.1,0.3c0,0,0,0,0,0.1c0,0.1,0,0.1,0,0.2
			c0,0,0,0.1,0,0.1c0,0,0,0,0,0.1c0,0.3,0.1,0.6,0.2,0.9c0,0.3,0.2,0.6,0.4,0.7c1.4,2.2,5,2.8,7.5,3.1c6.1,0.6,12.3,0.3,18.4,0.4
			c2,0,4.8,0,7.5,0.4c1.1,1.8,1.8,3.9,1.8,6c0,4.6-3.3,8.8-8.2,8.9c-0.5,0-0.8,0.2-0.9,0.6c0,0,0,0.1,0,0.1
			c-0.4,0.5-0.3,1.4,0.5,1.5c0.4,0.1,0.7,0.1,1.1,0.1c3.5,1.6,6.1,5.1,6,9c-0.1,4.2-2.6,7.9-6.1,10.2c-6.4,4.1-16.6,4.1-20.9-2.6
			c0,0,0-0.1-0.1-0.1c-0.2-0.4-0.5-1-0.8-1.8c1.8-1,3.6-2.2,4.7-3.8c1.6-2.2,0.6-5.1-1.9-6.1C295.8,61.5,293.2,62.7,292.7,65.5z
			 M288,70.9c-2.1-1-3.9-3.1-4.6-5.4c-1.2-3.8-0.4-7.9,0.1-11.7c0.6-4.4,1-8.8,1-13.2c0-0.3,0-0.5,0-0.8c1.6,1,2.9,2.2,3.8,3.8
			c1.6,2.8,2.2,6.2,1.5,9.4c-0.7,3.3-2.5,6.2-3.4,9.5C285.7,65.6,286.3,68.6,288,70.9z M264.2,44.7c0.5,3.1,3.2,10.6-3.2,9.3
			c-2.6-0.5-4.3-3-5-5.3c-1.7-5.6,1.8-11.3,6.4-14.4c4.6-3.1,11.3-4.4,16.3-1.4c1.7,1,2.6,2.3,3.1,3.7
			C274.2,34.5,262.8,36,264.2,44.7z M296.7,64.2c2.5,0.1,3,2.1,1.7,3.7c-0.6,0.7-1.5,1.4-2.3,1.9c-0.3,0.2-0.7,0.4-1,0.6
			C294.2,67.5,293.9,64.1,296.7,64.2z M412.8,144.2c-0.1,1.5-0.3,2.7-0.5,3.5c-5,0.1-7.9,0.2-8,0.2c0.3,0-0.1,0.2-0.6,0.3
			c-4.8-0.1-9.9-0.2-14.9-0.3l0-0.3l-9.5,0c-6.5-0.2-12.3-0.5-16.2-0.8c-14.8-1.2-46.4-4-52-4.5c-0.2-0.8-0.6-2.8-0.2-6.6
			c0.3-3.9,1-6,1.4-6.9l52.1,4.4c5.8,0.5,31.7,4.1,48.4,6.5C412.9,140.7,413,142.2,412.8,144.2z M426.6,145.1
			c-0.1,1-0.2,1.8-0.3,2.4c-4.2,0.1-7.9,0.1-11,0.2c0.2-0.9,0.3-1.9,0.4-3.2c0.2-1.8,0.1-3.2,0.1-4.2c5.1,0.7,9,1.3,10.8,1.6
			C426.7,142.5,426.7,143.5,426.6,145.1z"/>
	</g>
</g>
</svg>
